<svg width="286" height="66" viewBox="0 0 286 66" fill="none" xmlns="http://www.w3.org/2000/svg">
<path d="M70.8268 2.085C70.8268 2.085 46.3668 59.925 45.1568 63.055C43.9468 66.195 42.2968 65.835 42.2968 65.835H28.6468C28.6468 65.835 27.0068 66.195 25.7968 63.055C24.5868 59.915 0.126753 2.085 0.126753 2.085C0.126753 2.085 -0.573244 0.025 1.31676 0.025H12.0767C12.0767 0.025 14.3268 -0.375 15.2068 2.025C16.0868 4.425 34.3568 47.375 34.3568 47.375C34.3568 47.375 34.7468 48.325 35.4668 48.325C36.1868 48.325 36.5768 47.375 36.5768 47.375C36.5768 47.375 54.8567 4.425 55.7267 2.025C56.6067 -0.375 58.8568 0.025 58.8568 0.025H69.6168C71.4968 0.025 70.8268 2.085 70.8268 2.085Z" fill="white"/>
<path d="M106.448 65.8449H93.4976C92.8176 65.8449 92.2676 65.2949 92.2676 64.6149V1.23489C92.2676 0.554886 92.8176 0.00488281 93.4976 0.00488281H106.448C107.128 0.00488281 107.678 0.554886 107.678 1.23489V64.6149C107.678 65.2949 107.128 65.8449 106.448 65.8449Z" fill="white"/>
<path d="M174.777 0.0654297H138.207C136.037 0.0654297 136.217 2.05543 136.217 2.05543V63.8454C136.217 63.8454 136.037 65.8354 138.207 65.8354H174.777C174.777 65.8354 202.727 64.5154 202.727 34.0554V31.8454C202.727 1.38543 174.777 0.0654297 174.777 0.0654297ZM169.467 54.8554H153.337C153.337 54.8554 151.367 55.1554 151.367 52.8854V13.0154C151.367 10.7454 153.337 11.0454 153.337 11.0454H169.467C188.777 12.2754 187.517 32.0654 187.517 32.0654V33.8454C187.517 33.8454 188.777 53.6154 169.467 54.8554Z" fill="white"/>
<path d="M285.187 63.5847C283.917 60.7647 258.697 1.38465 258.697 1.38465C258.697 1.38465 258.147 0.0146484 257.327 0.0146484H249.367H241.407C240.587 0.0146484 240.037 1.38465 240.037 1.38465C240.037 1.38465 214.817 60.7647 213.547 63.5847C213.177 66.0547 215.317 65.8347 215.317 65.8347C215.317 65.8347 225.727 65.8447 226.397 65.8447C227.067 65.8447 227.407 64.8347 227.407 64.8347C227.407 64.8347 232.717 52.4447 233.247 51.2147C233.777 49.9847 234.927 50.1146 234.927 50.1146H263.797C263.797 50.1146 264.947 49.9847 265.477 51.2147C266.007 52.4447 271.317 64.8347 271.317 64.8347C271.317 64.8347 271.647 65.8447 272.327 65.8447C273.007 65.8447 283.417 65.8347 283.417 65.8347C283.417 65.8347 285.557 66.0547 285.187 63.5847ZM258.477 39.7646H240.267C238.327 39.7646 238.897 38.0546 238.897 38.0546C238.897 38.0546 247.447 17.6446 247.947 16.4146C248.447 15.1846 249.357 15.3447 249.357 15.3447C249.357 15.3447 250.267 15.1846 250.767 16.4146C251.267 17.6446 259.827 38.0546 259.827 38.0546C259.827 38.0546 260.417 39.7646 258.477 39.7646Z" fill="white"/>
</svg>
